<?xml version="1.0" encoding="utf-8"?>
<svg version="1.1" id="Layer_1" x="0px" y="0px" width="260px" height="260px" viewBox="-1.68 -1.681 260 260" enable-background="new 0 0 260 260" xmlns="http://www.w3.org/2000/svg">
  <rect x="-4.62" y="-2.94" width="263.78" height="260.42" style="stroke: rgb(0, 0, 0); fill: rgba(255, 255, 255, 0.6);"/>
  <path d="M 162.06 59.8 L 92.9 59.8 C 75.58 59.8 61.48 73.9 61.48 91.22 L 61.48 160.38 C 61.48 177.7 75.58 191.8 92.9 191.8 L 162.06 191.8 C 179.38 191.8 193.48 177.7 193.48 160.38 L 193.48 91.22 C 193.48 73.9 179.38 59.8 162.06 59.8 Z M 127.48 166.9 C 104.82 166.9 86.38 148.46 86.38 125.8 C 86.38 103.14 104.82 84.7 127.48 84.7 C 150.14 84.7 168.58 103.14 168.58 125.8 C 168.58 148.46 150.14 166.9 127.48 166.9 Z M 169.7 93.1 C 164.4 93.1 160.1 88.8 160.1 83.49 C 160.1 78.19 164.4 73.89 169.7 73.89 C 175.01 73.89 179.31 78.19 179.31 83.49 C 179.31 88.8 175.01 93.1 169.7 93.1 Z M 127.48 98.7 C 112.54 98.7 100.38 110.86 100.38 125.8 C 100.38 140.74 112.54 152.9 127.48 152.9 C 142.42 152.9 154.58 140.74 154.58 125.8 C 154.58 110.86 142.42 98.7 127.48 98.7 Z M 127.48 -2.2 C 56.79 -2.2 -0.52 55.11 -0.52 125.8 C -0.52 196.49 56.79 253.8 127.48 253.8 C 198.17 253.8 255.48 196.49 255.48 125.8 C 255.48 55.11 198.17 -2.2 127.48 -2.2 Z M 207.48 160.38 C 207.48 185.42 187.1 205.8 162.06 205.8 L 92.9 205.8 C 67.86 205.8 47.48 185.42 47.48 160.38 L 47.48 91.22 C 47.48 66.18 67.86 45.8 92.9 45.8 L 162.06 45.8 C 187.1 45.8 207.48 66.18 207.48 91.22 L 207.48 160.38 Z" style="fill: rgb(255, 255, 255);"/>
</svg>